<?xml version="1.0" encoding="utf-8"?>
<!-- Generator: Adobe Illustrator 16.0.0, SVG Export Plug-In . SVG Version: 6.00 Build 0)  -->
<!DOCTYPE svg PUBLIC "-//W3C//DTD SVG 1.1//EN" "http://www.w3.org/Graphics/SVG/1.1/DTD/svg11.dtd">
<svg version="1.1" id="Layer_1" xmlns="http://www.w3.org/2000/svg" xmlns:xlink="http://www.w3.org/1999/xlink" x="0px" y="0px"
	 width="146px" height="42px" viewBox="0 0 146 42" enable-background="new 0 0 146 42" xml:space="preserve">
<g>
	<path fill="none" d="M119.383,18.488c-0.969,0.947-1.455,2.078-1.455,3.39c0,1.126,0.379,2.017,1.136,2.669
		c0.759,0.652,1.699,0.979,2.821,0.979c0.512,0,1.061-0.078,1.646-0.236l1.137-8.059c-0.428-0.11-0.867-0.166-1.314-0.166
		C121.676,17.065,120.35,17.539,119.383,18.488z"/>
	<path fill="none" d="M40.089,18.221c-0.902,0-1.64,0.295-2.218,0.886c-0.578,0.592-0.867,1.345-0.867,2.261
		c0,0.907,0.297,1.647,0.886,2.223c0.592,0.575,1.354,0.862,2.282,0.862c0.921,0,1.676-0.291,2.266-0.873
		c0.588-0.58,0.881-1.325,0.881-2.233c0-0.901-0.307-1.647-0.919-2.24C41.789,18.516,41.018,18.221,40.089,18.221z"/>
	<path fill="none" d="M77.482,18.221c-0.9,0-1.641,0.295-2.217,0.886c-0.578,0.592-0.867,1.345-0.867,2.261
		c0,0.907,0.295,1.647,0.885,2.223c0.594,0.575,1.354,0.862,2.283,0.862c0.92,0,1.676-0.291,2.264-0.873
		c0.588-0.58,0.883-1.325,0.883-2.233c0-0.901-0.307-1.647-0.92-2.24C79.182,18.516,78.412,18.221,77.482,18.221z"/>
	<path fill="none" d="M134.385,17.23c-1.031,0-1.861,0.483-2.486,1.449c-0.627,0.967-0.939,2.158-0.939,3.576
		c0,0.964,0.201,1.722,0.604,2.274c0.402,0.555,0.949,0.832,1.634,0.832c0.985,0,1.827-0.488,2.524-1.461s1.047-2.162,1.047-3.565
		c0-0.949-0.215-1.704-0.652-2.265C135.682,17.511,135.107,17.23,134.385,17.23z"/>
	<polygon fill="#231F20" points="14.301,31.758 12.934,31.758 12.934,41.307 18.6,41.307 18.6,40.062 14.301,40.062 	"/>
	<rect x="55.51" y="31.758" fill="#231F20" width="1.367" height="9.549"/>
	<polygon fill="#231F20" points="97.893,38.463 95.021,31.758 93.645,31.758 97.76,41.348 98.07,41.348 102.107,31.758 
		100.746,31.758 	"/>
	<polygon fill="#231F20" points="140.205,37.109 144.115,37.109 144.115,35.887 140.205,35.887 140.205,32.975 144.252,32.975 
		144.252,31.758 138.838,31.758 138.838,41.293 144.383,41.293 144.383,40.076 140.205,40.076 	"/>
	<path fill="#010101" d="M23.355,16.823c-0.508-0.307-1.059-0.459-1.65-0.459c-1.066,0-2.02,0.464-2.857,1.393v-1.207h-1.92v9.492
		h1.92v-6.778c0.619-0.888,1.373-1.332,2.259-1.332c0.694,0,1.19,0.208,1.485,0.625c0.297,0.416,0.444,1.109,0.444,2.079v5.406
		h1.877v-5.427c0-1.155-0.133-2-0.396-2.533C24.252,17.548,23.865,17.128,23.355,16.823z"/>
	<polygon fill="#010101" points="30.333,22.389 27.77,16.549 25.715,16.549 30.006,26.207 30.642,26.207 34.833,16.549 
		32.799,16.549 	"/>
	<path fill="#010101" d="M40.193,16.528c-1.459,0-2.672,0.464-3.639,1.388c-0.967,0.925-1.449,2.082-1.449,3.472
		c0,1.375,0.479,2.523,1.436,3.441c0.954,0.919,2.144,1.378,3.568,1.378c1.473,0,2.692-0.453,3.664-1.357
		c0.969-0.904,1.455-2.041,1.455-3.41c0-1.41-0.478-2.581-1.435-3.514C42.836,16.995,41.637,16.528,40.193,16.528z M42.438,23.58
		c-0.59,0.582-1.344,0.873-2.266,0.873c-0.928,0-1.689-0.287-2.282-0.862c-0.589-0.575-0.886-1.315-0.886-2.223
		c0-0.916,0.29-1.668,0.867-2.261c0.578-0.591,1.316-0.886,2.218-0.886c0.928,0,1.7,0.295,2.31,0.886
		c0.612,0.592,0.919,1.338,0.919,2.24C43.318,22.255,43.025,23,42.438,23.58z"/>
	<rect x="46.929" y="11.628" fill="#010101" width="1.879" height="14.413"/>
	<path fill="#010101" d="M56.934,23.328c-0.627,0.874-1.387,1.311-2.279,1.311c-0.717,0-1.217-0.197-1.503-0.593
		c-0.284-0.396-0.426-1.091-0.426-2.087v-5.41h-1.879v5.438c0,1.191,0.129,2.041,0.386,2.553c0.261,0.513,0.643,0.919,1.147,1.218
		c0.506,0.299,1.056,0.449,1.657,0.449c0.508,0,1.02-0.122,1.531-0.365c0.514-0.242,0.969-0.581,1.367-1.018v1.217h1.878v-9.492
		h-1.878V23.328z"/>
	<path fill="#010101" d="M63.574,22.887v-4.645h3.001v-1.693h-3.001v-1.961l-3.527,3.468v0.186h1.65v4.209
		c0,0.859,0.038,1.441,0.117,1.748s0.177,0.555,0.295,0.744c0.117,0.188,0.266,0.358,0.443,0.51
		c0.571,0.502,1.287,0.754,2.146,0.754c0.854,0,1.641-0.203,2.363-0.609v-1.754c-0.75,0.447-1.462,0.67-2.137,0.67
		C64.025,24.514,63.574,23.973,63.574,22.887z"/>
	<rect x="68.877" y="16.549" fill="#010101" width="1.875" height="9.492"/>
	<path fill="#010101" d="M69.806,12.556c-0.289,0-0.545,0.112-0.763,0.335c-0.221,0.224-0.331,0.48-0.331,0.769
		c0,0.296,0.11,0.556,0.331,0.78c0.218,0.223,0.474,0.335,0.763,0.335c0.309,0,0.575-0.11,0.795-0.331
		c0.217-0.22,0.329-0.481,0.329-0.785c0-0.31-0.112-0.57-0.329-0.783C70.381,12.663,70.115,12.556,69.806,12.556z"/>
	<path fill="#010101" d="M77.586,16.528c-1.457,0-2.67,0.464-3.638,1.388c-0.965,0.925-1.448,2.082-1.448,3.472
		c0,1.375,0.478,2.523,1.434,3.441c0.955,0.919,2.146,1.378,3.57,1.378c1.473,0,2.692-0.453,3.662-1.357
		c0.971-0.904,1.455-2.041,1.455-3.41c0-1.41-0.479-2.581-1.434-3.514C80.23,16.995,79.031,16.528,77.586,16.528z M79.83,23.58
		c-0.588,0.582-1.344,0.873-2.264,0.873c-0.93,0-1.689-0.287-2.283-0.862c-0.59-0.575-0.885-1.315-0.885-2.223
		c0-0.916,0.289-1.668,0.867-2.261c0.576-0.591,1.316-0.886,2.217-0.886c0.93,0,1.699,0.295,2.311,0.886
		c0.613,0.592,0.92,1.338,0.92,2.24C80.713,22.255,80.418,23,79.83,23.58z"/>
	<path fill="#010101" d="M90.668,16.823c-0.508-0.307-1.059-0.459-1.65-0.459c-1.066,0-2.018,0.464-2.857,1.393v-1.207h-1.92v9.492
		h1.92v-6.778c0.619-0.888,1.371-1.332,2.26-1.332c0.695,0,1.189,0.208,1.486,0.625c0.293,0.416,0.443,1.109,0.443,2.079v5.406
		h1.877v-5.427c0-1.155-0.133-2-0.396-2.533C91.564,17.548,91.178,17.128,90.668,16.823z"/>
	<path fill="#010101" d="M98.967,25.5c0.6-0.484,0.9-1.07,0.9-1.759c0-0.476-0.156-0.942-0.473-1.403
		c-0.316-0.461-0.973-1.001-1.971-1.619s-1.605-1.063-1.822-1.334c-0.217-0.272-0.322-0.539-0.322-0.801
		c0-0.372,0.189-0.69,0.57-0.956s0.842-0.397,1.379-0.397c0.936,0,1.963,0.351,3.086,1.051v-1.031
		c-0.936-0.592-1.904-0.888-2.9-0.888c-0.859,0-1.578,0.227-2.156,0.681s-0.867,1.015-0.867,1.682c0,0.399,0.141,0.802,0.424,1.207
		c0.281,0.406,0.914,0.927,1.895,1.562c0.979,0.635,1.586,1.112,1.82,1.428c0.232,0.316,0.35,0.623,0.35,0.918
		c0,0.434-0.197,0.795-0.588,1.086c-0.393,0.289-0.887,0.434-1.486,0.434c-1.1,0-2.08-0.459-2.939-1.373l-0.289,0.99
		c0.977,0.832,2.039,1.248,3.187,1.248C97.631,26.227,98.364,25.984,98.967,25.5z"/>
	<path fill="#010101" d="M104.898,14.382h-0.926l-0.432,2.167h-1.869l-0.113,0.702h1.887l-0.906,4.416
		c-0.189,0.888-0.279,1.593-0.279,2.114c0,0.695,0.219,1.277,0.653,1.744c0.437,0.468,1,0.701,1.688,0.701
		c0.646,0,1.305-0.219,1.971-0.66V24.7c-0.639,0.55-1.244,0.825-1.816,0.825c-0.426,0-0.783-0.146-1.074-0.441
		c-0.287-0.294-0.432-0.709-0.432-1.242c0-0.254,0.086-0.93,0.26-2.031l0.867-4.56h2.516l0.104-0.702h-2.545L104.898,14.382z"/>
	<path fill="#010101" d="M114.035,23.116c-1.303,1.497-2.494,2.245-3.574,2.245c-0.521,0-0.934-0.15-1.238-0.449
		c-0.301-0.299-0.453-0.707-0.453-1.223c0-0.117,0.008-0.24,0.021-0.371l0.943-6.769h-0.926l-0.949,6.81
		c-0.021,0.172-0.031,0.34-0.031,0.506c0,0.721,0.229,1.296,0.682,1.723c0.453,0.426,1.004,0.639,1.65,0.639
		c1.273,0,2.5-0.631,3.684-1.898l0.051,0.033l-0.268,1.68h0.928l1.33-9.492h-0.926L114.035,23.116z"/>
	<path fill="#010101" d="M124.779,16.446c-0.723-0.055-1.186-0.083-1.395-0.083c-2.125,0-3.73,0.57-4.818,1.708
		c-1.087,1.139-1.629,2.392-1.629,3.761c0,1.163,0.409,2.186,1.229,3.07c0.816,0.885,2.033,1.325,3.652,1.325
		c0.619,0,1.473-0.098,2.559-0.292l2.008-14.307h-0.924L124.779,16.446z M123.531,25.289c-0.586,0.158-1.135,0.236-1.646,0.236
		c-1.122,0-2.062-0.326-2.821-0.979c-0.757-0.652-1.136-1.543-1.136-2.669c0-1.312,0.486-2.442,1.455-3.39
		c0.967-0.949,2.293-1.423,3.971-1.423c0.447,0,0.887,0.055,1.314,0.166L123.531,25.289z"/>
	<polygon fill="#010101" points="128.059,14.021 128.986,14.021 129.225,12.454 128.295,12.454 	"/>
	<polygon fill="#010101" points="126.408,26.041 127.346,26.041 128.676,16.549 127.748,16.549 	"/>
	<path fill="#010101" d="M134.426,16.363c-1.301,0-2.367,0.547-3.203,1.641c-0.838,1.094-1.254,2.504-1.254,4.23
		c0,1.238,0.309,2.213,0.924,2.926c0.615,0.711,1.398,1.066,2.348,1.066c1.225,0,2.283-0.541,3.178-1.625
		c0.893-1.082,1.34-2.506,1.34-4.266c0-1.217-0.301-2.184-0.902-2.899C136.252,16.721,135.443,16.363,134.426,16.363z M135.721,23.9
		c-0.697,0.973-1.539,1.461-2.524,1.461c-0.685,0-1.231-0.277-1.634-0.832c-0.402-0.553-0.604-1.311-0.604-2.274
		c0-1.417,0.312-2.609,0.939-3.576c0.625-0.966,1.455-1.449,2.486-1.449c0.723,0,1.297,0.28,1.73,0.84
		c0.438,0.561,0.652,1.315,0.652,2.265C136.768,21.739,136.418,22.928,135.721,23.9z"/>
	<path fill="#010101" d="M140.838,17.628c0.383-0.265,0.842-0.397,1.377-0.397c0.936,0,1.965,0.351,3.086,1.051v-1.031
		c-0.937-0.592-1.902-0.888-2.902-0.888c-0.857,0-1.576,0.227-2.154,0.681s-0.865,1.015-0.865,1.682
		c0,0.399,0.139,0.802,0.422,1.207c0.28,0.406,0.914,0.927,1.895,1.562c0.98,0.635,1.588,1.112,1.818,1.428
		c0.236,0.316,0.352,0.623,0.352,0.918c0,0.434-0.197,0.795-0.588,1.086c-0.393,0.289-0.887,0.434-1.484,0.434
		c-1.102,0-2.082-0.459-2.943-1.373l-0.287,0.99c0.977,0.832,2.039,1.248,3.188,1.248c0.867,0,1.6-0.242,2.201-0.727
		c0.604-0.484,0.906-1.07,0.906-1.759c0-0.476-0.158-0.942-0.475-1.403c-0.316-0.461-0.975-1.001-1.973-1.619
		s-1.605-1.063-1.82-1.334c-0.217-0.272-0.324-0.539-0.324-0.801C140.266,18.211,140.455,17.893,140.838,17.628z"/>
	<path fill="#010101" d="M13.682,14.092c0.31,0,0.575-0.109,0.794-0.33c0.221-0.221,0.33-0.481,0.33-0.784
		c0-0.31-0.109-0.569-0.33-0.784c-0.219-0.212-0.485-0.319-0.794-0.319c-0.288,0-0.542,0.112-0.762,0.336
		c-0.22,0.221-0.331,0.477-0.331,0.767c0,0.294,0.11,0.554,0.331,0.777C13.141,13.98,13.394,14.092,13.682,14.092z"/>
	<path fill="#010101" d="M14.641,26.035v-9.457c-0.314,0.083-0.642,0.14-0.993,0.14c-0.312,0-0.604-0.053-0.895-0.13v9.458
		c0.261,0.016,0.521,0.038,0.787,0.038C13.912,26.085,14.279,26.064,14.641,26.035z"/>
	<path fill="#010101" d="M10.486,14.882l-6.035,6.036c0.193,0.222,0.385,0.446,0.598,0.664c0.238,0.24,0.483,0.46,0.728,0.677
		l6.051-6.049c-0.281-0.166-0.554-0.356-0.802-0.604C10.806,15.386,10.633,15.14,10.486,14.882z"/>
	<path fill="#010101" d="M9.959,12.964c0.001-0.31,0.052-0.605,0.13-0.892H1.422c-0.018,0.28-0.041,0.559-0.041,0.843
		c0,0.354,0.021,0.701,0.051,1.044h8.666C10.016,13.644,9.959,13.317,9.959,12.964z"/>
	<path fill="#010101" d="M11.07,10.342c0.223-0.217,0.465-0.391,0.724-0.538L5.738,3.748C5.506,3.956,5.273,4.163,5.049,4.39
		C4.822,4.619,4.617,4.855,4.412,5.089l6.057,6.056C10.631,10.864,10.822,10.591,11.07,10.342z"/>
	<path fill="#010101" d="M14.602,9.406V0.7c-0.35-0.026-0.702-0.047-1.063-0.047c-0.278,0-0.549,0.021-0.822,0.041v8.724
		c0.316-0.083,0.642-0.142,0.995-0.142C14.021,9.278,14.318,9.328,14.602,9.406z"/>
	<path fill="#010101" d="M16.874,11.112l6.175-6.176c-0.221-0.249-0.443-0.495-0.69-0.734c-0.213-0.21-0.435-0.397-0.656-0.586
		l-6.172,6.17c0.281,0.165,0.554,0.353,0.805,0.602C16.551,10.609,16.726,10.855,16.874,11.112z"/>
</g>
</svg>
